<svg width="256" height="256" viewBox="0 0 256 256" fill="none" xmlns="http://www.w3.org/2000/svg">
  <path d="M52 140C52 118 69 102 90 102C96 80 116 66 138 66C164 66 186 84 192 108C212 110 228 126 228 146C228 168 210 186 188 186H92C70 186 52 168 52 146C52 144 52 142 52 140Z" fill="#FFF3D6"/>
  <path d="M40 154C40 132 58 116 80 116C85 96 103 84 124 84C147 84 166 96 176 114C180 108 188 104 198 104C214 104 228 118 228 134C228 138 227 142 226 146" stroke="#F24B3A" stroke-width="8" stroke-linecap="round" stroke-linejoin="round"/>
  <path d="M44 170H92C104 170 114 160 114 148C114 136 104 126 92 126C88 126 83 127 79 130C77 116 65 106 50 106C33 106 20 119 20 136C20 153 33 166 50 166" stroke="#F6B73C" stroke-width="8" stroke-linecap="round" stroke-linejoin="round"/>
  <path d="M132 188H188C203 188 216 176 216 160C216 144 203 132 188 132C182 132 176 134 171 138C167 122 153 110 136 110C116 110 100 126 100 146C100 166 116 182 136 182" stroke="#D4382A" stroke-width="8" stroke-linecap="round" stroke-linejoin="round"/>
</svg>
